<svg width="512" height="512" viewBox="0 0 512 512" fill="none" xmlns="http://www.w3.org/2000/svg">
<path fill-rule="evenodd" clip-rule="evenodd" d="M236.641 136.396C236.077 136.491 235.504 136.558 234.931 136.568C227.626 136.711 209.569 137.57 204.412 139.003C199.256 140.435 195.961 139.719 186.928 137.714C177.904 135.708 169.873 138.573 169.873 138.573C169.873 138.573 161.919 133.989 160.773 131.908C159.627 129.826 158.338 128.26 157.622 129.683C156.906 131.115 158.338 134.486 158.481 134.839C158.625 135.202 154.9 135.202 150.174 135.345C145.447 135.489 143.728 140.215 145.447 144.083C147.166 147.95 160.783 146.661 164.937 146.661C169.09 146.661 170.952 145.802 173.387 146.088C175.822 146.375 187.864 147.95 195.885 147.377C203.906 146.804 209.789 148.81 217.523 149.239C225.258 149.669 230.424 147.52 234.435 153.823C238.445 160.125 240.88 178.756 239.591 187.063C238.302 195.371 232.429 204.691 235.008 222.739C237.586 240.796 238.445 247.242 236.583 262.721C234.721 278.19 234.005 287.08 237.156 295.102C240.307 303.123 245.034 313.149 243.745 316.014C242.456 318.879 241.74 324.035 244.032 324.331C246.323 324.618 258.718 325.907 257.505 322.04C256.283 318.172 252.922 316.74 251.489 308.995C250.057 301.261 250.2 285.352 249.627 281.485C249.054 277.617 246.476 268.593 248.195 265.146C249.914 261.708 252.502 247.671 253.361 241.216C254.22 234.77 256.293 227.599 256.293 227.599C256.293 227.599 256.293 252.818 256.293 260.133C256.293 267.438 251.785 278.763 253.218 286.211C254.65 293.66 260.523 307.133 261.096 311.717C261.669 316.301 259.807 321.467 262.671 322.326C265.536 323.185 286.745 323.042 288.607 323.042C290.469 323.042 287.174 320.321 280.872 317.742C274.57 315.164 266.825 314.162 267.398 300.115C267.971 286.068 266.682 272.031 267.541 269.453C268.401 266.874 269.976 261.575 269.976 257.555C269.976 254.126 274.694 238.418 275.706 218.155C275.706 201.244 273.777 192.172 272.984 187.054C271.695 178.746 274.13 160.116 278.141 153.813C282.152 147.511 287.318 149.659 295.052 149.23C302.787 148.8 308.669 146.795 316.691 147.368C324.712 147.941 336.753 146.365 339.188 146.079C341.623 145.792 343.485 146.652 347.649 146.652C351.803 146.652 365.419 147.941 367.138 144.073C368.857 140.206 367.138 135.479 362.412 135.336C357.685 135.193 353.951 135.193 354.094 134.83C354.238 134.467 355.67 131.106 354.954 129.673C354.238 128.241 352.948 129.816 351.803 131.898C350.657 133.98 342.702 138.563 342.702 138.563C342.702 138.563 334.681 135.699 325.648 137.704C316.624 139.709 313.329 140.426 308.163 138.993C303.007 137.561 284.949 136.701 277.644 136.558C277.071 136.549 276.498 136.491 275.935 136.386H270.139H270.129H270.12H270.091H270.062C269.318 136.377 263.416 136.262 263.416 134.419V129.425C265.278 127.563 266.376 125.51 267.465 123.132C267.465 123.132 267.914 123.333 268.706 123.18C269.509 123.027 270.206 120.63 270.005 118.74C269.805 116.839 268.363 117.24 268.363 117.24C268.363 109.085 266.415 102.162 256.293 102.162C246.161 102.162 244.223 109.085 244.223 117.24C244.223 117.24 242.771 116.839 242.571 118.74C242.37 120.64 243.067 123.037 243.869 123.18C244.671 123.333 245.111 123.132 245.111 123.132C246.199 125.51 247.288 127.563 249.159 129.425V134.419C249.159 136.262 243.258 136.377 242.523 136.386H242.494H242.475H242.466H242.456H236.641V136.396Z" fill="#0196FF"/>
<path fill-rule="evenodd" clip-rule="evenodd" d="M207.946 133.818C203.925 131.659 200.115 129.511 195.073 128.079C187.329 125.882 176.548 120.306 174.361 119.217C172.165 118.119 170.122 118.291 166.216 116.877C162.311 115.464 149.066 112.046 148.77 107.825C148.474 103.604 151.692 99.7369 156.19 101.217C160.687 102.688 164.192 103.958 164.173 103.566C164.163 103.184 163.963 99.5268 165.118 98.4287C166.283 97.321 166.961 99.2499 167.324 101.589C167.696 103.929 173.617 110.948 173.617 110.948C173.617 110.948 182.134 110.986 189.946 115.942C197.757 120.898 200.612 122.693 205.95 123.103C211.288 123.514 228.552 128.842 235.476 131.201C235.476 131.201 218.287 132.643 207.946 133.818ZM280.203 210.497C280.203 210.497 280.49 221.106 279.487 228.984C278.485 236.862 276.05 245.322 276.05 245.322C276.05 245.322 284.653 260.076 285.503 264.812C286.363 269.539 284.644 273.836 293.248 283.442C301.842 293.039 306.855 298.635 307.867 301.07C308.87 303.505 310.875 312.672 313.31 311.526C315.745 310.38 330.508 303.505 332.37 300.497C334.232 297.489 331.014 297.852 327.28 298.998C323.556 300.143 315.526 299.494 313.31 295.197C311.095 290.9 308.583 278.362 302.854 268.469C297.124 258.576 294.107 256.428 291.968 245.685C289.819 234.942 290.822 235.802 286.811 224.477C282.782 213.151 280.203 210.497 280.203 210.497ZM229.908 212.216C229.908 212.216 224.609 220.237 223.32 226.978C222.03 233.711 221.314 235.429 219.882 239.02C218.45 242.601 213.293 248.187 208.996 253.926C204.699 259.665 199.113 267.973 197.68 274.848C196.248 281.723 194.672 292.189 191.951 295.484C189.229 298.778 184.493 299.208 183.49 300.497C182.488 301.786 185.496 304.937 189.363 307.515C193.23 310.094 198.1 308.948 198.244 306.226C198.387 303.505 198.817 295.187 202.111 290.174C205.406 285.161 215.862 268.966 217.877 264.096C219.882 259.226 219.595 257.64 221.458 255.922C223.32 254.203 231.914 244.176 231.914 244.176C231.914 244.176 230.768 230.13 229.908 224.83C229.049 219.521 229.908 212.216 229.908 212.216ZM304.63 133.818C308.65 131.659 312.46 129.511 317.502 128.079C325.247 125.882 336.027 120.306 338.224 119.217C340.42 118.119 342.463 118.291 346.369 116.877C350.275 115.464 363.51 112.046 363.815 107.825C364.111 103.604 360.893 99.7369 356.396 101.217C351.898 102.688 348.393 103.958 348.403 103.566C348.413 103.184 348.613 99.5268 347.458 98.4287C346.302 97.321 345.624 99.2499 345.252 101.589C344.879 103.929 338.959 110.948 338.959 110.948C338.959 110.948 330.441 110.986 322.63 115.942C314.819 120.898 311.964 122.693 306.635 123.103C301.297 123.514 284.033 128.842 277.11 131.201C277.1 131.201 294.279 132.643 304.63 133.818Z" fill="#0000FF"/>
<path fill-rule="evenodd" clip-rule="evenodd" d="M290.822 48C358.945 63.2308 409.737 122.531 409.737 193.366C409.737 275.746 341.031 342.532 256.283 342.532C171.535 342.532 102.829 275.755 102.829 193.366C102.829 122.531 153.63 63.2308 221.744 48V50.5783C159.618 66.0191 113.572 122.168 113.572 189.078C113.572 267.896 177.474 331.799 256.293 331.799C335.111 331.799 399.013 267.896 399.013 189.078C399.013 122.168 352.968 66.0191 290.832 50.5783V48H290.822Z" fill="#000066"/>
<path d="M353.722 139.786C352.834 139.786 352.07 140.301 351.688 141.046L306.998 142.364C306.597 141.686 305.871 141.228 305.031 141.228C304.143 141.228 303.389 141.734 303.007 142.469L274.102 143.08C273.634 141.848 272.45 140.96 271.046 140.96C270.024 140.96 269.117 141.438 268.515 142.182L258.489 138.649C258.374 137.981 257.954 137.417 257.391 137.093V112.208C258.546 111.759 259.367 110.651 259.367 109.343C259.367 107.643 257.983 106.259 256.293 106.259C254.593 106.259 253.208 107.634 253.208 109.343C253.208 110.651 254.029 111.769 255.185 112.208V137.083C254.507 137.465 254.039 138.191 254.039 139.022V139.031L243.497 145.019C243.058 144.703 242.523 144.512 241.95 144.512C241.1 144.512 240.355 144.913 239.868 145.534L225.707 142.154C225.468 140.932 224.399 140.005 223.11 140.005C222.04 140.005 221.123 140.645 220.703 141.552L184.55 141.428C184.13 140.511 183.213 139.862 182.134 139.862C180.673 139.862 179.48 141.046 179.48 142.517C179.48 143.978 180.664 145.171 182.134 145.171C183.204 145.171 184.121 144.532 184.541 143.624L220.694 143.748C221.114 144.665 222.03 145.315 223.11 145.315C223.959 145.315 224.704 144.904 225.191 144.293L239.353 147.683C239.553 148.714 240.346 149.526 241.367 149.764L247.66 180.474C247.164 180.894 246.849 181.515 246.849 182.212C246.849 183.005 247.25 183.711 247.87 184.122L243.745 230.072C242.332 230.435 241.281 231.705 241.281 233.233C241.281 234.589 242.112 235.754 243.287 236.25L240.565 283.9C239.792 284.273 239.257 285.056 239.257 285.963C239.257 287.023 239.983 287.901 240.957 288.169L248.653 319.614L250.783 319.098L243.086 287.653C243.545 287.233 243.841 286.641 243.841 285.972C243.841 285.151 243.401 284.435 242.762 284.034L245.483 236.375C246.839 235.974 247.842 234.732 247.842 233.242C247.842 232.45 247.546 231.734 247.078 231.161L256.226 215.796C256.235 215.796 256.235 215.796 256.245 215.796L266.472 235.954C266.214 236.327 266.071 236.766 266.071 237.253C266.071 237.95 266.386 238.561 266.873 238.981L259.129 274.829C257.524 275.039 256.283 276.404 256.283 278.066C256.283 279.689 257.467 281.036 259.024 281.293L265.67 318.248L267.828 317.857L261.182 280.902C262.165 280.339 262.834 279.288 262.834 278.066C262.834 276.891 262.213 275.87 261.277 275.287L268.974 239.411C269.919 239.125 270.616 238.265 270.616 237.224C270.616 236.298 270.062 235.506 269.27 235.143L267.054 204.681C268.21 204.175 269.012 203.029 269.012 201.683C269.012 200.365 268.229 199.238 267.112 198.713L271.848 147.387C272.927 147.11 273.787 146.298 274.13 145.257L303.035 144.646C303.427 145.334 304.162 145.802 305.012 145.802C305.9 145.802 306.664 145.286 307.046 144.541L351.736 143.223C352.137 143.901 352.862 144.36 353.703 144.36C354.963 144.36 355.995 143.328 355.995 142.068C356.023 140.817 354.992 139.786 353.722 139.786ZM267.761 144.235C267.761 144.627 267.847 145.009 267.971 145.353L260.122 151.913C259.348 151.273 258.412 150.824 257.381 150.633V140.96C257.515 140.884 257.639 140.798 257.744 140.702L267.761 144.235ZM255.185 140.97V150.643C253.924 150.882 252.798 151.502 251.938 152.4L244.557 147.568C244.576 147.434 244.595 147.31 244.595 147.177C244.595 147.1 244.576 147.024 244.576 146.947L255.137 140.951C255.156 140.951 255.166 140.96 255.185 140.97ZM250.735 154.233C250.439 154.95 250.267 155.733 250.267 156.554C250.267 158.932 251.642 160.975 253.638 161.949L249.284 177.533L243.545 149.526L250.735 154.233ZM255.748 162.541C255.92 162.56 256.102 162.57 256.283 162.57C256.331 162.57 256.379 162.56 256.417 162.56L263.779 197.701L251.251 183.014C251.346 182.756 251.403 182.489 251.403 182.203C251.403 181.563 251.136 180.98 250.706 180.56L255.748 162.541ZM262.92 200.069C262.643 200.546 262.471 201.1 262.471 201.692C262.471 202.323 262.662 202.905 262.967 203.402L256.846 211.022L251.193 186.309L262.92 200.069ZM258.403 212.597L264.686 204.767C264.753 204.786 264.81 204.805 264.877 204.824L266.835 231.858L258.174 214.784C258.432 214.412 258.575 213.972 258.575 213.485C258.575 213.17 258.518 212.874 258.403 212.597ZM258.575 162.121C260.762 161.223 262.299 159.065 262.299 156.554C262.299 155.484 262.012 154.482 261.525 153.603L269.384 147.043C269.48 147.1 269.566 147.148 269.671 147.196L265.326 194.33L258.575 162.121ZM249.599 189.183L254.765 211.776C254.287 212.196 253.991 212.807 253.991 213.485C253.991 213.915 254.115 214.307 254.316 214.65L246.056 228.525L249.599 189.183Z" fill="white"/>
<path d="M138.193 425.584H124.188V375.721H138.193V425.584ZM153.175 387.625H109.279V375.721H153.175V387.625ZM173.231 426.43C169.448 426.43 166.073 425.647 163.107 424.081C160.15 422.516 157.816 420.357 156.105 417.604C154.403 414.852 153.552 411.745 153.552 408.282C153.552 404.83 154.393 401.751 156.075 399.048C157.758 396.334 160.082 394.2 163.049 392.643C166.005 391.078 169.375 390.295 173.158 390.295C176.942 390.295 180.302 391.078 183.239 392.643C186.186 394.2 188.51 396.334 190.212 399.048C191.914 401.751 192.765 404.83 192.765 408.282C192.765 411.745 191.924 414.852 190.241 417.604C188.569 420.357 186.259 422.516 183.312 424.081C180.375 425.647 177.015 426.43 173.231 426.43ZM173.158 414.38C174.325 414.38 175.342 414.137 176.207 413.651C177.073 413.155 177.739 412.454 178.206 411.55C178.673 410.636 178.906 409.571 178.906 408.355C178.906 407.139 178.658 406.079 178.162 405.175C177.676 404.261 177.015 403.56 176.178 403.074C175.332 402.578 174.325 402.33 173.158 402.33C172.04 402.33 171.048 402.588 170.182 403.103C169.317 403.619 168.641 404.334 168.155 405.248C167.668 406.152 167.425 407.212 167.425 408.428C167.425 409.595 167.668 410.636 168.155 411.55C168.641 412.454 169.317 413.155 170.182 413.651C171.048 414.137 172.04 414.38 173.158 414.38ZM224.865 425.584H213.093V413.68H224.72C227.336 413.68 229.602 413.203 231.518 412.25C233.434 411.287 234.902 409.829 235.923 407.874C236.954 405.909 237.47 403.478 237.47 400.58C237.47 397.691 236.945 395.289 235.894 393.373C234.844 391.457 233.371 390.022 231.474 389.069C229.587 388.106 227.336 387.625 224.72 387.625H212.392V375.721H224.72C228.639 375.721 232.247 376.304 235.544 377.472C238.831 378.639 241.691 380.321 244.122 382.519C246.544 384.717 248.421 387.343 249.753 390.397C251.086 393.451 251.752 396.869 251.752 400.652C251.752 404.436 251.086 407.854 249.753 410.908C248.421 413.972 246.544 416.598 244.122 418.786C241.691 420.984 238.841 422.666 235.573 423.833C232.306 425 228.736 425.584 224.865 425.584ZM217.717 425.584H203.712V375.721H217.717V425.584ZM279.855 426.43C276.072 426.43 272.697 425.647 269.731 424.081C266.774 422.516 264.44 420.357 262.728 417.604C261.026 414.852 260.175 411.745 260.175 408.282C260.175 404.83 261.016 401.751 262.699 399.048C264.382 396.334 266.706 394.2 269.672 392.643C272.629 391.078 275.999 390.295 279.782 390.295C283.565 390.295 286.925 391.078 289.863 392.643C292.809 394.2 295.134 396.334 296.836 399.048C298.538 401.751 299.389 404.83 299.389 408.282C299.389 411.745 298.548 414.852 296.865 417.604C295.192 420.357 292.882 422.516 289.935 424.081C286.998 425.647 283.638 426.43 279.855 426.43ZM279.782 414.38C280.949 414.38 281.965 414.137 282.831 413.651C283.697 413.155 284.363 412.454 284.83 411.55C285.296 410.636 285.53 409.571 285.53 408.355C285.53 407.139 285.282 406.079 284.786 405.175C284.3 404.261 283.638 403.56 282.802 403.074C281.956 402.578 280.949 402.33 279.782 402.33C278.664 402.33 277.672 402.588 276.806 403.103C275.94 403.619 275.264 404.334 274.778 405.248C274.292 406.152 274.049 407.212 274.049 408.428C274.049 409.595 274.292 410.636 274.778 411.55C275.264 412.454 275.94 413.155 276.806 413.651C277.672 414.137 278.664 414.38 279.782 414.38ZM334.99 426.43C331.158 426.43 327.599 425.788 324.312 424.504C321.015 423.221 318.131 421.412 315.661 419.078C313.19 416.743 311.265 414.001 309.884 410.85C308.503 407.699 307.812 404.275 307.812 400.58C307.812 396.845 308.503 393.417 309.884 390.295C311.265 387.163 313.181 384.455 315.631 382.169C318.082 379.883 320.942 378.099 324.209 376.815C327.477 375.531 331.022 374.889 334.844 374.889C338.725 374.889 342.275 375.497 345.494 376.713C348.713 377.919 351.514 379.597 353.897 381.746L344.575 391.126C343.456 389.92 342.095 388.967 340.49 388.267C338.876 387.567 336.994 387.217 334.844 387.217C332.977 387.217 331.26 387.518 329.695 388.121C328.139 388.724 326.796 389.609 325.668 390.776C324.55 391.943 323.675 393.358 323.042 395.021C322.42 396.675 322.109 398.527 322.109 400.58C322.109 402.68 322.42 404.562 323.042 406.225C323.675 407.879 324.55 409.289 325.668 410.456C326.796 411.623 328.139 412.523 329.695 413.155C331.26 413.787 332.977 414.103 334.844 414.103C336.945 414.103 338.827 413.777 340.49 413.126C342.143 412.464 343.578 411.506 344.794 410.252L354.174 419.632C351.704 421.781 348.927 423.449 345.844 424.636C342.761 425.832 339.143 426.43 334.99 426.43ZM380.103 426.43C375.853 426.43 372.153 425.808 369.002 424.563C365.851 423.328 362.947 421.358 360.292 418.655L369.045 409.902C370.864 411.623 372.775 412.941 374.779 413.855C376.792 414.769 378.941 415.226 381.227 415.226C383.143 415.226 384.592 414.935 385.574 414.351C386.547 413.767 387.033 412.96 387.033 411.929C387.033 410.898 386.615 410.047 385.778 409.376C384.942 408.696 383.833 408.088 382.452 407.553C381.071 407.018 379.554 406.468 377.901 405.904C376.247 405.35 374.604 404.674 372.97 403.877C371.336 403.079 369.828 402.111 368.447 400.973C367.066 399.826 365.957 398.401 365.121 396.699C364.285 394.997 363.867 392.906 363.867 390.426C363.867 387.207 364.635 384.43 366.171 382.096C367.708 379.762 369.877 377.977 372.678 376.742C375.479 375.507 378.771 374.889 382.554 374.889C386.289 374.889 389.756 375.483 392.956 376.669C396.155 377.865 398.806 379.558 400.906 381.746L392.08 390.499C390.544 389.011 389.002 387.902 387.456 387.173C385.919 386.453 384.242 386.093 382.423 386.093C380.974 386.093 379.816 386.327 378.951 386.794C378.085 387.26 377.652 387.961 377.652 388.894C377.652 389.877 378.076 390.679 378.922 391.301C379.758 391.933 380.867 392.507 382.248 393.023C383.619 393.538 385.136 394.073 386.799 394.627C388.453 395.192 390.096 395.858 391.73 396.626C393.364 397.394 394.872 398.377 396.253 399.573C397.624 400.759 398.733 402.243 399.579 404.022C400.415 405.792 400.833 407.937 400.833 410.456C400.833 415.542 399.024 419.476 395.407 422.258C391.789 425.039 386.688 426.43 380.103 426.43Z" fill="#000066"/>
</svg>
